# Blender v3.0.1 OBJ File: ''
# www.blender.org
mtllib Cylinder.mtl
o 柱体
v 0.038707 -1.036903 -1.036251
v 0.038707 0.963097 -1.036251
v 0.203302 -1.036903 -1.022612
v 0.203302 0.963097 -1.022612
v 0.363406 -1.036903 -0.982068
v 0.363406 0.963097 -0.982068
v 0.514654 -1.036903 -0.915725
v 0.514654 0.963097 -0.915725
v 0.652920 -1.036903 -0.825391
v 0.652920 0.963097 -0.825391
v 0.774431 -1.036903 -0.713532
v 0.774431 0.963097 -0.713532
v 0.875873 -1.036903 -0.583199
v 0.875873 0.963097 -0.583199
v 0.954480 -1.036903 -0.437946
v 0.954480 0.963097 -0.437946
v 1.008107 -1.036903 -0.281736
v 1.008107 0.963097 -0.281736
v 1.035291 -1.036903 -0.118830
v 1.035291 0.963097 -0.118830
v 1.035291 -1.036903 0.046328
v 1.035291 0.963097 0.046328
v 1.008107 -1.036903 0.209235
v 1.008107 0.963097 0.209235
v 0.954480 -1.036903 0.365445
v 0.954480 0.963097 0.365445
v 0.875873 -1.036903 0.510697
v 0.875873 0.963097 0.510697
v 0.774431 -1.036903 0.641031
v 0.774431 0.963097 0.641031
v 0.652920 -1.036903 0.752890
v 0.652920 0.963097 0.752890
v 0.514654 -1.036903 0.843223
v 0.514654 0.963097 0.843223
v 0.363406 -1.036903 0.909566
v 0.363406 0.963097 0.909566
v 0.203302 -1.036903 0.950110
v 0.203302 0.963097 0.950110
v 0.038707 -1.036903 0.963749
v 0.038707 0.963097 0.963749
v -0.125888 -1.036903 0.950110
v -0.125888 0.963097 0.950110
v -0.285993 -1.036903 0.909566
v -0.285993 0.963097 0.909566
v -0.437240 -1.036903 0.843223
v -0.437240 0.963097 0.843223
v -0.575506 -1.036903 0.752890
v -0.575506 0.963097 0.752890
v -0.697017 -1.036903 0.641031
v -0.697017 0.963097 0.641031
v -0.798460 -1.036903 0.510697
v -0.798460 0.963097 0.510697
v -0.877066 -1.036903 0.365444
v -0.877066 0.963097 0.365444
v -0.930693 -1.036903 0.209235
v -0.930693 0.963097 0.209235
v -0.957878 -1.036903 0.046329
v -0.957878 0.963097 0.046329
v -0.957878 -1.036903 -0.118830
v -0.957878 0.963097 -0.118830
v -0.930693 -1.036903 -0.281736
v -0.930693 0.963097 -0.281736
v -0.877066 -1.036903 -0.437946
v -0.877066 0.963097 -0.437946
v -0.798460 -1.036903 -0.583199
v -0.798460 0.963097 -0.583199
v -0.697017 -1.036903 -0.713532
v -0.697017 0.963097 -0.713532
v -0.575506 -1.036903 -0.825391
v -0.575506 0.963097 -0.825391
v -0.437241 -1.036903 -0.915725
v -0.437241 0.963097 -0.915725
v -0.285993 -1.036903 -0.982068
v -0.285993 0.963097 -0.982068
v -0.125888 -1.036903 -1.022612
v -0.125888 0.963097 -1.022612
vt 1.000000 0.500000
vt 1.000000 1.000000
vt 0.973684 1.000000
vt 0.973684 0.500000
vt 0.947368 1.000000
vt 0.947368 0.500000
vt 0.921053 1.000000
vt 0.921053 0.500000
vt 0.894737 1.000000
vt 0.894737 0.500000
vt 0.868421 1.000000
vt 0.868421 0.500000
vt 0.842105 1.000000
vt 0.842105 0.500000
vt 0.815789 1.000000
vt 0.815789 0.500000
vt 0.789474 1.000000
vt 0.789474 0.500000
vt 0.763158 1.000000
vt 0.763158 0.500000
vt 0.736842 1.000000
vt 0.736842 0.500000
vt 0.710526 1.000000
vt 0.710526 0.500000
vt 0.684210 1.000000
vt 0.684210 0.500000
vt 0.657894 1.000000
vt 0.657894 0.500000
vt 0.631579 1.000000
vt 0.631579 0.500000
vt 0.605263 1.000000
vt 0.605263 0.500000
vt 0.578947 1.000000
vt 0.578947 0.500000
vt 0.552631 1.000000
vt 0.552631 0.500000
vt 0.526315 1.000000
vt 0.526315 0.500000
vt 0.500000 1.000000
vt 0.500000 0.500000
vt 0.473684 1.000000
vt 0.473684 0.500000
vt 0.447368 1.000000
vt 0.447368 0.500000
vt 0.421052 1.000000
vt 0.421052 0.500000
vt 0.394737 1.000000
vt 0.394737 0.500000
vt 0.368421 1.000000
vt 0.368421 0.500000
vt 0.342105 1.000000
vt 0.342105 0.500000
vt 0.315789 1.000000
vt 0.315789 0.500000
vt 0.289473 1.000000
vt 0.289473 0.500000
vt 0.263158 1.000000
vt 0.263158 0.500000
vt 0.236842 1.000000
vt 0.236842 0.500000
vt 0.210526 1.000000
vt 0.210526 0.500000
vt 0.184210 1.000000
vt 0.184210 0.500000
vt 0.157894 1.000000
vt 0.157894 0.500000
vt 0.131579 1.000000
vt 0.131579 0.500000
vt 0.105263 1.000000
vt 0.105263 0.500000
vt 0.078947 1.000000
vt 0.078947 0.500000
vt 0.052631 1.000000
vt 0.052631 0.500000
vt 0.289503 0.486727
vt 0.250000 0.490000
vt 0.210497 0.486727
vt 0.172072 0.476996
vt 0.135773 0.461074
vt 0.102589 0.439394
vt 0.073426 0.412548
vt 0.049080 0.381268
vt 0.030214 0.346407
vt 0.017344 0.308917
vt 0.010820 0.269819
vt 0.010820 0.230181
vt 0.017344 0.191083
vt 0.030214 0.153593
vt 0.049080 0.118732
vt 0.073426 0.087452
vt 0.102589 0.060606
vt 0.135773 0.038926
vt 0.172072 0.023004
vt 0.210497 0.013273
vt 0.250000 0.010000
vt 0.289503 0.013273
vt 0.327928 0.023004
vt 0.364227 0.038926
vt 0.397411 0.060606
vt 0.426574 0.087452
vt 0.450920 0.118732
vt 0.469786 0.153593
vt 0.482656 0.191083
vt 0.489180 0.230181
vt 0.489180 0.269819
vt 0.482656 0.308917
vt 0.469786 0.346407
vt 0.450920 0.381268
vt 0.426574 0.412548
vt 0.397411 0.439394
vt 0.364227 0.461074
vt 0.327928 0.476996
vt 0.026316 1.000000
vt 0.026316 0.500000
vt -0.000000 1.000000
vt -0.000000 0.500000
vt 0.750000 0.490000
vt 0.789503 0.486727
vt 0.827928 0.476996
vt 0.864227 0.461074
vt 0.897411 0.439394
vt 0.926574 0.412548
vt 0.950920 0.381268
vt 0.969786 0.346407
vt 0.982656 0.308917
vt 0.989180 0.269819
vt 0.989180 0.230181
vt 0.982656 0.191083
vt 0.969786 0.153593
vt 0.950920 0.118732
vt 0.926574 0.087452
vt 0.897411 0.060606
vt 0.864227 0.038926
vt 0.827928 0.023004
vt 0.789503 0.013273
vt 0.750000 0.010000
vt 0.710497 0.013273
vt 0.672072 0.023004
vt 0.635773 0.038926
vt 0.602589 0.060606
vt 0.573426 0.087452
vt 0.549080 0.118732
vt 0.530214 0.153593
vt 0.517344 0.191083
vt 0.510820 0.230181
vt 0.510820 0.269819
vt 0.517344 0.308917
vt 0.530214 0.346407
vt 0.549080 0.381268
vt 0.573426 0.412548
vt 0.602589 0.439394
vt 0.635773 0.461074
vt 0.672072 0.476996
vt 0.710497 0.486727
vn 0.0826 0.0000 -0.9966
vn 0.2455 0.0000 -0.9694
vn 0.4017 0.0000 -0.9158
vn 0.5469 0.0000 -0.8372
vn 0.6773 0.0000 -0.7357
vn 0.7891 0.0000 -0.6142
vn 0.8795 0.0000 -0.4759
vn 0.9458 0.0000 -0.3247
vn 0.9864 0.0000 -0.1646
vn 1.0000 0.0000 0.0000
vn 0.9864 0.0000 0.1646
vn 0.9458 0.0000 0.3247
vn 0.8795 0.0000 0.4759
vn 0.7891 0.0000 0.6142
vn 0.6773 0.0000 0.7357
vn 0.5469 0.0000 0.8372
vn 0.4017 0.0000 0.9158
vn 0.2455 0.0000 0.9694
vn 0.0826 0.0000 0.9966
vn -0.0826 0.0000 0.9966
vn -0.2455 0.0000 0.9694
vn -0.4017 0.0000 0.9158
vn -0.5469 0.0000 0.8372
vn -0.6773 0.0000 0.7357
vn -0.7891 0.0000 0.6142
vn -0.8795 0.0000 0.4759
vn -0.9458 0.0000 0.3247
vn -0.9864 0.0000 0.1646
vn -1.0000 0.0000 0.0000
vn -0.9864 0.0000 -0.1646
vn -0.9458 0.0000 -0.3247
vn -0.8795 0.0000 -0.4759
vn -0.7891 0.0000 -0.6142
vn -0.6773 0.0000 -0.7357
vn -0.5469 0.0000 -0.8372
vn -0.4017 0.0000 -0.9158
vn 0.0000 1.0000 -0.0000
vn -0.2455 0.0000 -0.9694
vn -0.0826 0.0000 -0.9966
vn 0.0000 -1.0000 0.0000
usemtl None
s off
f 1/1/1 2/2/1 4/3/1 3/4/1
f 3/4/2 4/3/2 6/5/2 5/6/2
f 5/6/3 6/5/3 8/7/3 7/8/3
f 7/8/4 8/7/4 10/9/4 9/10/4
f 9/10/5 10/9/5 12/11/5 11/12/5
f 11/12/6 12/11/6 14/13/6 13/14/6
f 13/14/7 14/13/7 16/15/7 15/16/7
f 15/16/8 16/15/8 18/17/8 17/18/8
f 17/18/9 18/17/9 20/19/9 19/20/9
f 19/20/10 20/19/10 22/21/10 21/22/10
f 21/22/11 22/21/11 24/23/11 23/24/11
f 23/24/12 24/23/12 26/25/12 25/26/12
f 25/26/13 26/25/13 28/27/13 27/28/13
f 27/28/14 28/27/14 30/29/14 29/30/14
f 29/30/15 30/29/15 32/31/15 31/32/15
f 31/32/16 32/31/16 34/33/16 33/34/16
f 33/34/17 34/33/17 36/35/17 35/36/17
f 35/36/18 36/35/18 38/37/18 37/38/18
f 37/38/19 38/37/19 40/39/19 39/40/19
f 39/40/20 40/39/20 42/41/20 41/42/20
f 41/42/21 42/41/21 44/43/21 43/44/21
f 43/44/22 44/43/22 46/45/22 45/46/22
f 45/46/23 46/45/23 48/47/23 47/48/23
f 47/48/24 48/47/24 50/49/24 49/50/24
f 49/50/25 50/49/25 52/51/25 51/52/25
f 51/52/26 52/51/26 54/53/26 53/54/26
f 53/54/27 54/53/27 56/55/27 55/56/27
f 55/56/28 56/55/28 58/57/28 57/58/28
f 57/58/29 58/57/29 60/59/29 59/60/29
f 59/60/30 60/59/30 62/61/30 61/62/30
f 61/62/31 62/61/31 64/63/31 63/64/31
f 63/64/32 64/63/32 66/65/32 65/66/32
f 65/66/33 66/65/33 68/67/33 67/68/33
f 67/68/34 68/67/34 70/69/34 69/70/34
f 69/70/35 70/69/35 72/71/35 71/72/35
f 71/72/36 72/71/36 74/73/36 73/74/36
f 4/75/37 2/76/37 76/77/37 74/78/37 72/79/37 70/80/37 68/81/37 66/82/37 64/83/37 62/84/37 60/85/37 58/86/37 56/87/37 54/88/37 52/89/37 50/90/37 48/91/37 46/92/37 44/93/37 42/94/37 40/95/37 38/96/37 36/97/37 34/98/37 32/99/37 30/100/37 28/101/37 26/102/37 24/103/37 22/104/37 20/105/37 18/106/37 16/107/37 14/108/37 12/109/37 10/110/37 8/111/37 6/112/37
f 73/74/38 74/73/38 76/113/38 75/114/38
f 75/114/39 76/113/39 2/115/39 1/116/39
f 1/117/40 3/118/40 5/119/40 7/120/40 9/121/40 11/122/40 13/123/40 15/124/40 17/125/40 19/126/40 21/127/40 23/128/40 25/129/40 27/130/40 29/131/40 31/132/40 33/133/40 35/134/40 37/135/40 39/136/40 41/137/40 43/138/40 45/139/40 47/140/40 49/141/40 51/142/40 53/143/40 55/144/40 57/145/40 59/146/40 61/147/40 63/148/40 65/149/40 67/150/40 69/151/40 71/152/40 73/153/40 75/154/40
